<?xml version="1.0" encoding="utf-8"?>
<!-- Generator: Adobe Illustrator 18.0.0, SVG Export Plug-In . SVG Version: 6.00 Build 0)  -->
<!DOCTYPE svg PUBLIC "-//W3C//DTD SVG 1.1//EN" "http://www.w3.org/Graphics/SVG/1.1/DTD/svg11.dtd">
<svg version="1.1" id="Layer_1" xmlns="http://www.w3.org/2000/svg" xmlns:xlink="http://www.w3.org/1999/xlink" x="0px" y="0px"
	 width="356.7px" height="245.8px" viewBox="0 0 356.7 245.8" enable-background="new 0 0 356.7 245.8" xml:space="preserve">
<g>
	<rect x="0" fill="#F6F8FC" width="356.7" height="245.8"/>
	<g>
		<path d="M91.9,104.6c2.6,2.8,3.4,6.2,3.6,9.8c0.1,1.2,0.1,2.5,0.1,3.7c0,0.6,0.2,0.9,0.8,1.1c1.6,0.6,3.3,1.1,4.8,1.9
			c3.1,1.7,3.9,4.7,2.4,7.9c-0.2,0.4-0.2,1-0.1,1.4c0.4,1.3,0.6,2.7,2.2,3.4c0.7,0.3,1.2,1.7,1.3,2.7c0.4,3-0.4,5.9-1.6,8.7
			c-3.3,7.5-8.9,12.5-16.7,14.8c-10.7,3.2-20.9,2-30.2-4.6c-3.6-2.6-6.3-6-8.2-10.1c-0.3-0.7-0.7-0.9-1.4-1
			c-7.5-0.8-12.3-8-10.2-15.3c0.2-0.7,0.1-1.1-0.5-1.5c-0.1,0-0.1-0.1-0.2-0.2c-4.1-2.7-4.6-6.5-3.3-10.7c0.6-2.1,1.4-4.1,2.4-6
			c5-9.2,11.8-16.7,20.5-22.5c2.7-1.9,5.7-3.3,9-3.9c2.7-0.4,5,0.1,6.9,2.2c0.8,0.9,1.8,1.7,2.6,2.5c0.5,0.6,0.9,0.6,1.7,0.3
			c3.7-1.6,7.5-2.9,11.6-2.7c0.9,0,1.8,0.1,2.6,0.3c4.4,1,6.4,4.4,5.2,9c-0.8,2.9-2.5,5.4-4.4,7.7C92.6,103.8,92.3,104.2,91.9,104.6
			z M100.6,138c0.1,0.1,0.1,0.2,0.2,0.2c-0.8,0.7-1.5,1.6-2.4,2.2c-5.3,3.8-11.2,5.1-17.6,4.4c-2-0.2-3.9-0.9-5.4-2.2
			c-1.6-1.4-2.1-3.7-1.2-5.6c0.8-1.8,2.1-2.5,4.5-2.3c3.9,0.5,7.7,0.2,11.5-0.7c3.6-0.9,7.1-2.2,9.9-4.8c2.5-2.4,2.1-4.9-1.1-6.3
			c-1.4-0.6-2.8-1-4.2-1.4c-1.1-0.3-1.6-1-1.7-2c-0.1-0.7,0-1.4-0.1-2c-0.2-2.3-0.3-4.7-0.8-6.9c-0.6-2.7-3.3-3.6-5.3-1.8
			c-2.8,2.5-5.9,2.8-9.4,2.3c-1.3-0.2-2.7-0.2-3.9,0.1c-4.2,1-6.8,5.5-5.8,10c0.6,2.7,2.3,4.6,4,6.6c1,1.2,1,1.4,0,2.6
			c-5.1,5.7-5.4,17.7,5,22.2c8.9,3.8,20.8,0.1,25.8-8.2c1.2-2,2-4.1,2.1-6.4c0-0.7-0.3-2-0.7-2.1c-1.5-0.3-1.5-1.5-1.7-2.5
			c-0.2-0.6-0.4-1.3-0.7-2c-0.2,0.1-0.4,0.2-0.5,0.3c-4.3,3.1-9.2,4.8-14.5,5.1c-2.7,0.2-5.4,0-8.1-0.1c-1,0-2,0-2.4,1.6
			c2.1,0.4,4.1,0.9,6.1,1.1c2,0.2,4,0,6,0c0,0.1,0,0.2,0,0.3c-4,1.5-8.1,1-12.3-0.1c0.3,1.5,1.2,2.3,2.4,2.6c1.6,0.5,3.2,0.9,4.8,1
			c6.1,0.4,11.5-1.6,16.7-4.6C99.9,138.4,100.3,138.2,100.6,138z M74,90.8c-0.6-0.6-1.2-1.2-1.8-1.9c-1.5-2-3.6-2.5-5.8-1.6
			c-2.5,0.9-5.1,1.9-7.3,3.3c-8.2,5.2-14.6,12.3-19.1,20.8c-1.2,2.2-2,4.5-2.7,6.9c-1,3.4,0.1,5.7,3,7.3c1.4-1.8,3.1-3,5.3-3.6
			c0.8-0.2,1.2-0.6,1.5-1.4c3.5-8.8,8.7-16.3,16.2-22.1C66.7,95.9,70.3,93.5,74,90.8z M56,133.6c-0.3-1.4-0.5-3.1-1.1-4.6
			c-1.1-2.9-3.7-4.6-6.5-4.6c-3.1,0.1-5.7,2-6.8,4.9c-1.9,5.3,1.5,11.1,7.1,12c3.3,0.5,5.8-1,6.7-4.2C55.7,136.1,55.8,135,56,133.6z
			 M61.8,105.9c7.1-4.6,14.8-6.2,23.2-4.5c0-0.2,0-0.3,0.1-0.5c-2.3-0.6-4.7-1.2-7.1-1.9c0.4-0.4,0.7-0.8,1.3-1.5
			c-3.3,0.2-6,1.4-8.9,3.1c0.3-1,0.6-1.7,0.9-2.5C68.5,99.2,63.7,103.2,61.8,105.9z"/>
		<path d="M281.7,120.4c0.4-0.8,0.7-1.7,1.1-2.5c1.8-3.5,4.8-4.9,8.5-3.8c2.2,0.6,3.7,2,4.3,4.2c0.5,1.8,0.8,3.7,0.9,5.6
			c0.1,4.3,0,8.5,0,12.8c0,0.3-0.1,0.5-0.1,0.9c-2.7,0-5.4,0-8.2,0c0-0.5,0-0.9,0-1.3c0-3.8,0-7.6,0-11.5c0-0.9-0.1-1.8-0.4-2.6
			c-0.6-1.5-2.4-1.8-3.2-0.3c-0.7,1.3-1.1,2.9-1.2,4.3c-0.2,3.3-0.1,6.7-0.1,10c0,0.4,0,0.9,0,1.4c-2.8,0-5.6,0-8.5,0
			c0-0.4,0-0.8,0-1.3c0-3.8,0-7.6,0-11.3c0-0.8-0.1-1.6-0.2-2.4c-0.2-0.9-0.6-1.5-1.6-1.6c-0.9-0.1-1.7,0.3-2,1.1
			c-0.5,1.3-0.9,2.8-1,4.2c-0.1,3.3,0,6.7,0,10c0,0.4,0,0.9,0,1.4c-2.8,0-5.5,0-8.4,0c0-7.7,0-15.3,0-23.1c2,0,4,0,6.3,0
			c-0.2,2-0.4,4-0.7,6c0.1,0,0.2,0.1,0.2,0.1c0.2-0.3,0.4-0.6,0.5-0.9c0.5-1,1-2.1,1.7-3.1c1.6-2.3,4.1-3.2,6.9-2.4
			c2.7,0.7,3.9,2.6,4.3,5.2c0.1,0.4,0.1,0.8,0.2,1.1C281.5,120.3,281.6,120.3,281.7,120.4z"/>
		<path d="M138.8,120.3c0.4-0.9,0.7-1.7,1.2-2.6c1.8-3.5,4.9-4.8,8.6-3.7c3.2,1,4.5,3.5,4.9,6.6c0.2,1.8,0.2,3.6,0.3,5.4
			c0,3.7,0,7.5,0,11.3c-2.8,0-5.5,0-8.3,0c0-0.5,0-0.9,0-1.3c0-3.6,0-7.2,0-10.7c0-0.8,0-1.5-0.2-2.3c-0.2-1-0.5-2-1.7-2.2
			c-1.3-0.2-2,0.7-2.3,1.7c-0.4,1.3-0.6,2.7-0.7,4.1c-0.1,3.5,0,7.1,0,10.7c-2.8,0-5.6,0-8.5,0c0-0.6,0-1.2,0-1.7c0-3.3,0-6.7,0-10
			c0-1.1-0.1-2.2-0.2-3.2c-0.1-0.8-0.6-1.5-1.6-1.6c-0.9-0.1-1.7,0.2-2,1.1c-0.5,1.4-0.9,2.9-1,4.4c-0.1,3.3,0,6.5,0,9.8
			c0,0.4,0,0.9,0,1.4c-2.9,0-5.6,0-8.4,0c0-7.7,0-15.3,0-23c2,0,4,0,6,0c0.7,2-0.2,4-0.5,5.9c0.1,0,0.2,0.1,0.4,0.1
			c0.2-0.3,0.4-0.7,0.6-1c0.6-1,1-2.1,1.7-3.1c1.6-2.3,4.2-3.1,6.9-2.3c2.5,0.7,3.9,2.6,4.2,5.4c0,0.3,0.1,0.6,0.2,0.9
			C138.6,120.3,138.7,120.3,138.8,120.3z"/>
		<path d="M307.8,135.2c0,2.7,0,5.5,0,8.5c-2.8,0-5.5,0-8.3,0c0-9.8,0-19.5,0-29.5c1.9,0,3.8,0,5.7,0c0.2,0,0.5,0.5,0.5,0.8
			c-0.1,1.2-0.2,2.4-0.4,3.6c-0.1,0.5-0.2,1.1-0.3,1.6c0.1,0,0.2,0.1,0.3,0.1c0.2-0.2,0.4-0.4,0.5-0.7c0.3-0.6,0.5-1.2,0.8-1.7
			c3.2-6.2,11.3-5.1,14.1-0.3c1.9,3.2,2.1,6.8,1.8,10.4c-0.2,2.1-0.7,4.2-1.9,6c-1.9,3-5.6,4.7-8.8,3.6
			C310.3,137.2,309.1,136.1,307.8,135.2z M314.5,126.6c-0.3-1.3-0.4-2.8-1-4.2c-0.9-2.1-3.3-2.2-4.6-0.4c-1.6,2.2-1.6,6.7-0.1,9
			c0.6,0.9,1.4,1.5,2.6,1.4c1.2-0.1,2-0.8,2.3-1.9C314,129.3,314.2,128.1,314.5,126.6z"/>
		<path d="M232.2,120.4c0.2-0.2,0.4-0.5,0.5-0.7c0.2-0.5,0.4-0.9,0.7-1.4c1.9-3.5,4.8-5,8.4-4.4c3.2,0.6,5.2,2.9,5.6,6.8
			c0.2,2.1,0.3,4.2,0.3,6.3c0,3.5,0,6.9,0,10.5c-2.8,0-5.6,0-8.4,0c0-0.5,0-0.9,0-1.3c0-4.1,0-8.1,0-12.2c0-2-0.7-2.9-1.9-3
			c-1.3-0.1-2.3,0.7-2.8,2.5c-0.3,0.9-0.4,1.9-0.4,2.8c0,3.3,0,6.7,0,10c0,0.4,0,0.8,0,1.2c-2.8,0-5.6,0-8.4,0c0-10,0-20,0-30.1
			c2.2,0,4.5,0,6.7,0c0.2,0,0.6,0.6,0.7,1c0.4,3.6,0,7.1-1,10.5c-0.1,0.5-0.2,1-0.3,1.4C231.9,120.3,232,120.3,232.2,120.4z"/>
		<path d="M169.8,123.2c0.1-1.6-0.5-2.7-1.9-2.8c-1.6-0.1-3.4,0-5,0.3c-1.9,0.5-3.8,1.4-5.8,2.1c0-2.1,0-4.3,0-6.4
			c0-0.2,0.3-0.5,0.6-0.6c4.1-1.7,8.3-2.5,12.6-1.9c3.9,0.5,6.4,2.9,7.3,6.7c0.4,1.6,0.6,3.3,0.6,5c0.1,3.7,0,7.3,0,11
			c0,0.2,0,0.5-0.1,0.8c-2.1,0-4.1,0-6.4,0c-0.1-1.9-0.2-3.9-0.3-5.8c-0.1,0-0.2,0-0.3-0.1c-0.2,0.4-0.5,0.9-0.6,1.3
			c-1.7,4.4-6.5,6.4-10.9,4.6c-2.4-1-3.8-2.7-4-5.3c-0.3-3,0.5-5.7,3.2-7.2c1.6-0.9,3.5-1.4,5.3-1.6
			C166,123,167.9,123.2,169.8,123.2z M169.8,128c-1.1,0-2-0.1-3,0c-1,0.1-2,0.4-3,0.8c-0.8,0.4-1.1,1.3-0.8,2.2
			c0.3,1,1.1,1.1,1.9,1.1C167.1,132.1,169.1,130.4,169.8,128z"/>
		<path d="M223,127.4c0,2.5,0,4.9,0,7.2c0,0.3-0.3,0.7-0.6,0.9c-4.3,2.8-8.9,3.4-13.6,1.2c-4.1-2-5.6-5.7-5.9-10
			c-0.1-1.5,0-3,0.3-4.4c1-4.6,3.9-7.4,8.5-8.3c3.5-0.7,7-0.3,10.2,1.3c0.8,0.4,1.2,0.9,1.2,2c-0.1,2.2,0,4.4,0,6.8
			c-0.5-0.2-0.8-0.4-1.1-0.5c-2.4-1.2-5-1.9-7.7-1.6c-0.4,0-0.9,0.1-1.3,0.3c-2,0.6-3.2,2.2-3.1,3.9c0.2,1.9,1.5,3.2,3.7,3.5
			c2.8,0.5,5.3-0.1,7.8-1.4C221.8,128.1,222.3,127.8,223,127.4z"/>
		<path d="M200.5,137.4c-2.8,0-5.5,0-8.3,0c0-10,0-20,0-30.1c2.7,0,5.5,0,8.3,0C200.5,117.3,200.5,127.3,200.5,137.4z"/>
		<path d="M181.1,114.4c2.8,0.9,5.5,0.9,8.3,0c0,7.7,0,15.3,0,23c-2.8,0-5.5,0-8.3,0C181.1,129.8,181.1,122.2,181.1,114.4z"/>
		<path d="M250.6,114.4c2.8,0.9,5.5,0.9,8.2,0c0,7.7,0,15.3,0,22.9c-2.7,0-5.4,0-8.2,0C250.6,129.8,250.6,122.2,250.6,114.4z"/>
		<path d="M254.9,106.7c1.3,0.6,2.7,0.9,3.9,1.7c1.5,1,1.4,2.8,0,4c-2,1.8-6.1,1.8-8.2,0c-1.4-1.2-1.4-2.9,0-4.1
			c1-0.8,2.5-1.3,4.2-1.3C254.8,106.9,254.9,106.8,254.9,106.7z"/>
		<path d="M185.2,106.6c1.4,0.6,2.8,1,4,1.7c1.5,1,1.4,2.9,0,4.1c-2,1.7-6,1.7-8.1,0c-1.5-1.2-1.6-3.1,0.1-4.2
			C182.3,107.5,183.8,107.2,185.2,106.6z"/>
		<path d="M91.1,119c-0.1,1.6-0.3,1.9-1.5,1.7c-0.3,0-0.7-0.3-0.8-0.5c-0.4-1.3-0.7-2.5-0.9-3.8c0-0.4,0.5-1.3,0.9-1.3
			c0.5,0,1.2,0.4,1.4,0.9C90.7,116.9,90.8,117.9,91.1,119z"/>
		<path d="M81.3,122.9c-2.8-1.8-5.5-1.5-8.2-0.4c0.2-1.5,2.1-2.6,4.1-2.6C79.2,119.9,81,121,81.3,122.9z"/>
		<path d="M81,124.2c-1.7,0.2-3.3,0.4-4.9,0.5c0.1-0.8,0.5-1.2,1.8-1.5C79.3,122.8,80.3,123.1,81,124.2z"/>
		<path d="M85.8,124.3c1.1,0.1,1.8,0.4,1.9,1.3c0,0.3-0.6,0.8-0.9,0.8c-0.8,0-1.5-0.4-1.6-1.3C85.2,124.9,85.7,124.5,85.8,124.3z"/>
		<path d="M91.9,123.9c-0.7,0.6-1.1,0.9-1.6,1.3c-0.3-0.5-0.9-0.9-0.8-1.4c0-0.5,0.6-0.9,0.9-1.3C90.8,122.9,91.2,123.3,91.9,123.9z
			"/>
		<path d="M53.3,136.7c-0.6,0.3-1.2,0.8-1.7,0.7c-0.7-0.2-1.6-0.7-1.8-1.3c-0.3-1,0-2.1,0-3.1c0-0.7,0.1-1.6-0.2-2.2
			c-0.3-0.5-1.2-0.9-1.9-1c-1-0.1-1.6,0.6-2,1.5c-0.3,0.5-0.7,0.9-1.1,1.4c-0.1-0.7-0.3-1.4-0.2-2c0.5-2,1.8-3.1,3.6-3.2
			c1.5-0.1,3.1,0.7,3.5,2.2c0.3,1,0.1,2.1,0.1,3.1c0,0.5-0.4,0.9-0.5,1.3c-0.5,1.5-0.1,2.1,1.5,2c0.1,0,0.3,0.1,0.4,0.1
			C53.2,136.3,53.3,136.5,53.3,136.7z"/>
	</g>
</g>
</svg>
