<?xml version="1.0" encoding="utf-8"?>
<!-- Generator: Adobe Illustrator 18.0.0, SVG Export Plug-In . SVG Version: 6.00 Build 0)  -->
<!DOCTYPE svg PUBLIC "-//W3C//DTD SVG 1.1//EN" "http://www.w3.org/Graphics/SVG/1.1/DTD/svg11.dtd">
<svg version="1.1" id="Layer_1" xmlns="http://www.w3.org/2000/svg" xmlns:xlink="http://www.w3.org/1999/xlink" x="0px" y="0px"
	 width="356.7px" height="245.8px" viewBox="0 0 356.7 245.8" enable-background="new 0 0 356.7 245.8" xml:space="preserve">
<g>
	<rect y="0" fill="#F6F8FC" width="356.7" height="245.8"/>
	<g>
		<path d="M291.7,131.9c-8.1,0-16.3,0-24.4,0c-0.9,3.2,0.7,5.7,3.8,6.3c3.8,0.6,7.6,0.1,11.4-0.6c2-0.3,4.1-0.7,6.1-1.1
			c0,4,0,7.9,0,11.8c0,1.2-0.9,1.6-1.9,1.9c-4.6,1.3-9.3,2.2-14.1,1.9c-3.3-0.2-6.6-0.5-9.8-1.3c-6.2-1.6-10.2-5.8-12-11.9
			c-2.6-8.5-2.6-17.1,0.1-25.6c2.4-7.7,7.8-11.9,15.7-13c3.3-0.5,6.5-0.6,9.8,0.1c7.1,1.4,11.6,5.9,13.4,12.8
			c0.9,3.7,1,7.6,1.5,11.4c0.2,2,0.3,4,0.5,6C291.7,131,291.7,131.5,291.7,131.9z M275,122c-0.4-3.2-0.7-6.3-1.2-9.3
			c-0.3-1.8-2.4-2.7-4-1.7c-0.8,0.5-1.8,1.5-1.9,2.4c-0.5,2.8-0.7,5.7-1,8.6C269.6,122,272.1,122,275,122z"/>
		<path d="M200.3,100.8c2.5,0,5,0,7.5,0c1.3,0,2.6-0.1,3.9-0.1c2.8,0,3.7,0.5,5.6,3.2c0.6-0.4,1.3-0.9,1.9-1.3
			c5-3.2,10.3-3.5,15.7-1.6c3.1,1.1,5,3.5,6.3,6.4c1.6,3.4,2.4,7,2.7,10.7c0.6,6.2,0.6,12.3-0.6,18.4c-0.7,3.4-1.8,6.6-3.8,9.4
			c-3,4.1-7.2,5.9-12.1,6c-3,0.1-6-0.3-9.1-0.4c0,5.8,0,11.6,0,17.6c-6.1,0-12,0-18,0C200.3,146.4,200.3,123.7,200.3,100.8z
			 M218.2,127C218.2,127,218.2,127,218.2,127c0,3.6,0,7.2,0,10.9c0,0.8,0.3,1.1,1,1.3c3.3,0.9,5.4-0.3,6.1-3.7
			c1.3-5.9,1.1-11.9,0.6-17.9c-0.4-4.3-2-5.2-6-3.7c-1.2,0.5-1.8,1.2-1.7,2.5C218.2,120,218.2,123.5,218.2,127z"/>
		<path d="M108.2,112.4c-2.2,0-4.2,0-6.4,0c0-3.8,0-7.6,0-11.4c2,0,4.1,0,6.3,0c0.7-3.3,1.3-6.4,1.9-9.6c0.2-1.4,0.9-2.1,2.2-2.4
			c4.6-1,9.1-2.1,13.8-3.3c0,5,0,9.9,0,15c3.2,0,6.3,0,9.6,0c-0.8,3.9-1.6,7.7-2.4,11.5c-2.3,0-4.6,0-7.1,0c0,0.7,0,1.4,0,2
			c0,6.7,0,13.3,0,20c0,3.7,0.9,4.4,4.5,4.1c1.6-0.2,3.1-0.4,4.8-0.5c0,0.4,0.1,0.7,0.1,1c0,3.6,0,7.2,0,10.8c0,0.7-0.2,1.1-1,1.2
			c-4.6,0.8-9.3,1.7-14,1.3c-1.5-0.1-3.1-0.4-4.5-0.8c-4.6-1.4-6.9-4.9-7.6-9.5c-0.2-1.2-0.3-2.5-0.3-3.7c0-8.1,0-16.1,0-24.2
			C108.2,113.4,108.2,113,108.2,112.4z"/>
		<path d="M65.9,136.9c2.2,0.5,4.4,1,6.6,1.3c2.2,0.3,4.4,0.4,6.5,0.4c1.4,0,2.7-1.2,2.9-2.4c0.2-1.1-0.3-2-1.8-2.8
			c-2.1-1.1-4.2-2.3-6.3-3.3c-7.5-3.4-10.1-10.7-8.3-18.3c1.5-6.3,5.7-9.8,11.8-11.1c6.4-1.4,12.8-0.9,19,1.1
			c0.8,0.2,1.4,0.6,1.4,1.5c0,3.7,0,7.5,0,11.4c-1.8-0.3-3.5-0.6-5.2-0.9c-1.5-0.3-3-0.6-4.6-0.7c-1-0.1-2,0-3,0.1
			c-1,0.2-2,0.8-2.2,1.8c-0.2,1.1,0.3,2.1,1.3,2.8c0.7,0.5,1.6,0.9,2.4,1.4c1.8,0.9,3.6,1.8,5.3,2.7c6,3.1,8.2,8.1,7.7,14.6
			c-0.3,3.4-1.1,6.7-3.2,9.5c-2.7,3.7-6.6,5.2-10.9,5.7c-6.1,0.8-12.1,0-18.1-1.6c-1.1-0.3-1.6-0.9-1.6-2.1c0.1-3.4,0-6.8,0-10.2
			C65.9,137.6,65.9,137.3,65.9,136.9z"/>
		<path d="M157.6,151c-6,0-11.9,0-17.8,0c0-16.7,0-33.3,0-50.1c0.5-0.1,1-0.2,1.4-0.2c3.7,0,7.4,0,11.1,0c1.1,0,1.8,0.4,2.3,1.4
			c0.5,1.1,1.1,2.1,1.8,3.2c0.6-0.8,1.2-1.6,1.7-2.2c3.2-3.9,6.9-3.9,11-2.6c0.5,0.2,1.1,0.9,1.1,1.4c0.1,4.5,0,9.1,0,13.7
			c-1.6-0.2-3.1-0.5-4.7-0.5c-1.9,0-3.8,0.1-5.7,0.3c-1.4,0.2-2,1-2.1,2.5c-0.1,0.9-0.1,1.8-0.1,2.8c0,9.6,0,19.1,0,28.7
			C157.6,150,157.6,150.4,157.6,151z"/>
		<path d="M192.4,151.1c-5.9,0-11.8,0-17.7,0c0-16.7,0-33.3,0-50.1c5.9,0,11.7,0,17.7,0C192.4,117.7,192.4,134.3,192.4,151.1z"/>
		<path d="M183.6,94.7c-5,0-9-4-9-9c0-5,4-9.1,9.1-9c5,0,9,4,9,9C192.7,90.7,188.6,94.7,183.6,94.7z"/>
	</g>
</g>
</svg>
