<?xml version="1.0" encoding="utf-8"?>
<!-- Generator: Adobe Illustrator 18.0.0, SVG Export Plug-In . SVG Version: 6.00 Build 0)  -->
<!DOCTYPE svg PUBLIC "-//W3C//DTD SVG 1.1//EN" "http://www.w3.org/Graphics/SVG/1.1/DTD/svg11.dtd">
<svg version="1.1" id="Layer_1" xmlns="http://www.w3.org/2000/svg" xmlns:xlink="http://www.w3.org/1999/xlink" x="0px" y="0px"
	 width="356.7px" height="245.8px" viewBox="0 0 356.7 245.8" enable-background="new 0 0 356.7 245.8" xml:space="preserve">
<g>
	<rect x="0" fill="#F6F8FC" width="356.7" height="245.8"/>
	<g>
		<path d="M71.2,79.9c1.3,0.2,2.6,0.5,3.9,0.7c6.2,1.3,10.2,5,11.9,11.1c3.9,14.8,7.8,29.7,11.7,44.5c0.1,0.4,0.2,0.8,0.7,1.2
			c0.8-3.1,1.6-6.2,2.3-9.3c2.3-9.4,4.5-18.8,7-28.1c0.8-2.9,1.9-5.8,3.3-8.5c2.9-5.5,9.1-8.3,15.3-7.5c5.9,0.8,10.1,3.8,12.1,9.3
			c2,5.6,3.6,11.4,5.2,17.2c2.3,8.5,4.5,17,6.7,25.5c0.1,0.5,0.3,0.9,0.6,1.8c0.3-0.9,0.5-1.4,0.6-1.9c3.9-14.8,7.7-29.6,11.5-44.4
			c2.4-9.5,11.4-12.2,18.6-11.3c-0.4,1.7-0.8,3.4-1.3,5.1c-6.9,26-13.7,52-20.6,78c-0.2,0.8-0.6,1.6-1,2.3c-1.1,0-2.2,0-3.3,0
			c-0.7-0.1-1.3-0.3-2-0.3c-6.4-0.5-10.9-3.6-13.1-9.8c-0.5-1.4-1.1-2.9-1.4-4.3c-3.8-15.1-7.6-30.1-11.4-45.2
			c-0.3-1.1-0.6-2.3-1.2-3.2c-0.9-1.5-2.5-1.5-3.4-0.1c-0.6,1-1,2.1-1.3,3.2c-2.9,11.4-5.6,22.8-8.5,34.2
			c-1.4,5.6-2.9,11.3-4.8,16.7c-1.7,4.8-5.6,7.2-10.5,8.2c-1,0.2-2,0.4-3,0.6c-1.2,0-2.4,0-3.7,0c-0.5-0.6-1.3-1.2-1.5-1.9
			c-7-26.1-13.9-52.2-20.9-78.3c-0.4-1.6-1-3.1-1.5-4.6c0-0.4,0-0.7,0-1.1C69.3,79.9,70.2,79.9,71.2,79.9z"/>
		<path d="M211.5,165.9c0.2-0.7,0.2-1.5,0.6-2c8.7-13.1,17.5-26.3,26.3-39.3c0.7-1.1,0.7-1.8,0-2.9c-8.5-13-17-26-25.5-39
			c-0.4-0.6-0.8-1.2-1.3-2.1c7.6-0.6,14.8-0.9,19.9,5.7c5,6.6,9.7,13.4,14.5,20.1c0.6,0.9,1.2,1.8,1.9,2.7c1.5,2.1,2.9,2.1,4.3,0.1
			c3.5-5.1,6.9-10.2,10.5-15.3c1.8-2.6,3.6-5.1,5.6-7.5c5.3-6.4,12.5-6.6,20.2-5.8c-1.2,1.8-2.3,3.4-3.3,5c-8.1,12-16.2,24-24.4,36
			c-0.9,1.2-0.7,2,0,3.2c8.8,13,17.5,26.1,26.2,39.2c0.4,0.6,0.6,1.3,0.9,1.9c-2.2,0-4.4,0-6.6,0c-0.3-0.1-0.6-0.3-0.8-0.3
			c-6-0.5-10.8-3-14.2-7.9c-4.6-6.6-9.3-13.2-13.9-19.8c-2.1-3-3.3-3-5.4,0.1c-3.4,5-6.6,10-10.1,14.9c-2,2.8-4.3,5.5-6.6,8.1
			c-1.9,2.1-4.4,3.3-7.1,3.9c-1.8,0.4-3.6,0.8-5.3,1.1C215.7,165.9,213.6,165.9,211.5,165.9z"/>
		<path d="M188.3,165.6c0-1.2,0-1.8,0-2.4c0-18.5,0-37,0-55.5c0-2.8,1.1-4.8,3.5-6.1c1.2-0.7,2.4-1.2,3.6-1.9c2.7-1.5,5.3-3.1,8-4.7
			c0,0.1,0.1,0.6,0.1,1.1c0,18.4,0,36.8,0,55.3c0,1.7-0.2,3.4-0.4,5.1c-0.6,4.5-2.9,7.2-7.4,8.2C193.3,165.2,191,165.3,188.3,165.6z
			"/>
		<path fill="#FBBE73" d="M188.1,97.8c0.6-3.5,0.8-6.8,1.7-10c1.3-4.7,5-6.6,9.5-7.2c1.3-0.2,2.6-0.2,4.1-0.3
			c-0.1,1.8-0.1,3.5-0.4,5.1c-0.7,4.9-4.4,7.2-8.3,9.2C192.6,95.6,190.6,96.6,188.1,97.8z"/>
	</g>
</g>
</svg>
